<mxfile host="Electron" agent="Mozilla/5.0 (Windows NT 10.0; Win64; x64) AppleWebKit/537.36 (KHTML, like Gecko) draw.io/28.0.6 Chrome/138.0.7204.100 Electron/37.2.3 Safari/537.36" version="28.0.6">
  <diagram name="Page-1" id="w98W-j5h10tyo0LjItTK">
    <mxGraphModel dx="1596" dy="571" grid="1" gridSize="10" guides="1" tooltips="1" connect="1" arrows="1" fold="1" page="1" pageScale="1" pageWidth="827" pageHeight="1169" math="0" shadow="0">
      <root>
        <mxCell id="0" />
        <mxCell id="1" parent="0" />
        <mxCell id="8zR02o3t1v-lVRDo11p1-3" style="edgeStyle=orthogonalEdgeStyle;rounded=0;orthogonalLoop=1;jettySize=auto;html=1;exitX=1;exitY=0.5;exitDx=0;exitDy=0;" parent="1" source="8zR02o3t1v-lVRDo11p1-1" target="8zR02o3t1v-lVRDo11p1-2" edge="1">
          <mxGeometry relative="1" as="geometry" />
        </mxCell>
        <mxCell id="8zR02o3t1v-lVRDo11p1-9" style="edgeStyle=orthogonalEdgeStyle;rounded=0;orthogonalLoop=1;jettySize=auto;html=1;exitX=0;exitY=0.5;exitDx=0;exitDy=0;entryX=0.5;entryY=0;entryDx=0;entryDy=0;" parent="1" source="8zR02o3t1v-lVRDo11p1-1" target="8zR02o3t1v-lVRDo11p1-8" edge="1">
          <mxGeometry relative="1" as="geometry" />
        </mxCell>
        <mxCell id="8zR02o3t1v-lVRDo11p1-1" value="&lt;font size=&quot;3&quot;&gt;is_empty&lt;/font&gt;" style="rounded=1;whiteSpace=wrap;html=1;" parent="1" vertex="1">
          <mxGeometry x="370" y="30" width="120" height="60" as="geometry" />
        </mxCell>
        <mxCell id="8zR02o3t1v-lVRDo11p1-7" style="edgeStyle=orthogonalEdgeStyle;rounded=0;orthogonalLoop=1;jettySize=auto;html=1;exitX=0.5;exitY=1;exitDx=0;exitDy=0;entryX=0.5;entryY=0;entryDx=0;entryDy=0;" parent="1" source="8zR02o3t1v-lVRDo11p1-2" target="8zR02o3t1v-lVRDo11p1-6" edge="1">
          <mxGeometry relative="1" as="geometry" />
        </mxCell>
        <mxCell id="8zR02o3t1v-lVRDo11p1-2" value="&lt;font size=&quot;3&quot;&gt;purchase_price = 0&lt;/font&gt;" style="rounded=1;whiteSpace=wrap;html=1;" parent="1" vertex="1">
          <mxGeometry x="500" y="180" width="180" height="60" as="geometry" />
        </mxCell>
        <mxCell id="8zR02o3t1v-lVRDo11p1-4" value="&lt;font style=&quot;font-size: 18px;&quot;&gt;Yes&lt;/font&gt;" style="text;html=1;align=center;verticalAlign=middle;whiteSpace=wrap;rounded=0;" parent="1" vertex="1">
          <mxGeometry x="500" y="20" width="60" height="30" as="geometry" />
        </mxCell>
        <mxCell id="8zR02o3t1v-lVRDo11p1-5" value="&lt;font style=&quot;font-size: 18px;&quot;&gt;No&lt;/font&gt;" style="text;html=1;align=center;verticalAlign=middle;whiteSpace=wrap;rounded=0;" parent="1" vertex="1">
          <mxGeometry x="280" y="20" width="60" height="30" as="geometry" />
        </mxCell>
        <mxCell id="8zR02o3t1v-lVRDo11p1-6" value="&lt;font size=&quot;3&quot;&gt;- is_valid_purchase_price&amp;nbsp;&lt;/font&gt;&lt;span style=&quot;font-size: medium; background-color: transparent; color: light-dark(rgb(0, 0, 0), rgb(255, 255, 255));&quot;&gt;True&lt;/span&gt;&lt;div&gt;&lt;span style=&quot;font-size: medium; background-color: transparent; color: light-dark(rgb(0, 0, 0), rgb(255, 255, 255));&quot;&gt;- &#39;hinit&#39; your p_p is 0 now.&lt;/span&gt;&lt;/div&gt;" style="rounded=0;whiteSpace=wrap;html=1;" parent="1" vertex="1">
          <mxGeometry x="480" y="340" width="310" height="60" as="geometry" />
        </mxCell>
        <mxCell id="8zR02o3t1v-lVRDo11p1-13" style="edgeStyle=orthogonalEdgeStyle;rounded=0;orthogonalLoop=1;jettySize=auto;html=1;exitX=0;exitY=0.5;exitDx=0;exitDy=0;entryX=0.5;entryY=0;entryDx=0;entryDy=0;" parent="1" source="8zR02o3t1v-lVRDo11p1-8" target="8zR02o3t1v-lVRDo11p1-12" edge="1">
          <mxGeometry relative="1" as="geometry" />
        </mxCell>
        <mxCell id="8zR02o3t1v-lVRDo11p1-15" style="edgeStyle=orthogonalEdgeStyle;rounded=0;orthogonalLoop=1;jettySize=auto;html=1;exitX=1;exitY=0.5;exitDx=0;exitDy=0;entryX=0.5;entryY=0;entryDx=0;entryDy=0;" parent="1" source="8zR02o3t1v-lVRDo11p1-8" target="8zR02o3t1v-lVRDo11p1-14" edge="1">
          <mxGeometry relative="1" as="geometry" />
        </mxCell>
        <mxCell id="8zR02o3t1v-lVRDo11p1-8" value="&lt;font size=&quot;3&quot;&gt;p_price = 0&lt;/font&gt;" style="rhombus;whiteSpace=wrap;html=1;" parent="1" vertex="1">
          <mxGeometry x="80" y="200" width="180" height="80" as="geometry" />
        </mxCell>
        <mxCell id="8zR02o3t1v-lVRDo11p1-10" value="&lt;font style=&quot;font-size: 18px;&quot;&gt;No&lt;/font&gt;" style="text;html=1;align=center;verticalAlign=middle;whiteSpace=wrap;rounded=0;" parent="1" vertex="1">
          <mxGeometry x="250" y="190" width="60" height="30" as="geometry" />
        </mxCell>
        <mxCell id="8zR02o3t1v-lVRDo11p1-11" value="&lt;font style=&quot;font-size: 18px;&quot;&gt;Yes&lt;/font&gt;" style="text;html=1;align=center;verticalAlign=middle;whiteSpace=wrap;rounded=0;" parent="1" vertex="1">
          <mxGeometry x="20" y="190" width="60" height="30" as="geometry" />
        </mxCell>
        <mxCell id="8zR02o3t1v-lVRDo11p1-12" value="&lt;font size=&quot;3&quot;&gt;- is_valid_p_p&amp;nbsp;&lt;/font&gt;&lt;span style=&quot;font-size: medium; background-color: transparent; color: light-dark(rgb(0, 0, 0), rgb(255, 255, 255));&quot;&gt;True&lt;/span&gt;&lt;div&gt;&lt;span style=&quot;font-size: medium; background-color: transparent; color: light-dark(rgb(0, 0, 0), rgb(255, 255, 255));&quot;&gt;- hint &#39;your p_p is 0&#39;&lt;/span&gt;&lt;/div&gt;" style="rounded=0;whiteSpace=wrap;html=1;" parent="1" vertex="1">
          <mxGeometry x="-110" y="370" width="180" height="100" as="geometry" />
        </mxCell>
        <mxCell id="8zR02o3t1v-lVRDo11p1-19" style="edgeStyle=orthogonalEdgeStyle;rounded=0;orthogonalLoop=1;jettySize=auto;html=1;exitX=0;exitY=0.5;exitDx=0;exitDy=0;entryX=0.5;entryY=0;entryDx=0;entryDy=0;" parent="1" source="8zR02o3t1v-lVRDo11p1-14" target="8zR02o3t1v-lVRDo11p1-18" edge="1">
          <mxGeometry relative="1" as="geometry" />
        </mxCell>
        <mxCell id="8zR02o3t1v-lVRDo11p1-22" style="edgeStyle=orthogonalEdgeStyle;rounded=0;orthogonalLoop=1;jettySize=auto;html=1;exitX=1;exitY=0.5;exitDx=0;exitDy=0;entryX=0.5;entryY=0;entryDx=0;entryDy=0;" parent="1" source="8zR02o3t1v-lVRDo11p1-14" target="8zR02o3t1v-lVRDo11p1-21" edge="1">
          <mxGeometry relative="1" as="geometry" />
        </mxCell>
        <mxCell id="8zR02o3t1v-lVRDo11p1-14" value="&lt;font size=&quot;3&quot;&gt;p_p &amp;gt; 100000&lt;/font&gt;" style="rhombus;whiteSpace=wrap;html=1;" parent="1" vertex="1">
          <mxGeometry x="200" y="470" width="230" height="80" as="geometry" />
        </mxCell>
        <mxCell id="8zR02o3t1v-lVRDo11p1-16" value="&lt;font style=&quot;font-size: 18px;&quot;&gt;Yes&lt;/font&gt;" style="text;html=1;align=center;verticalAlign=middle;whiteSpace=wrap;rounded=0;" parent="1" vertex="1">
          <mxGeometry x="170" y="460" width="60" height="30" as="geometry" />
        </mxCell>
        <mxCell id="8zR02o3t1v-lVRDo11p1-17" value="&lt;font style=&quot;font-size: 18px;&quot;&gt;No&lt;/font&gt;" style="text;html=1;align=center;verticalAlign=middle;whiteSpace=wrap;rounded=0;" parent="1" vertex="1">
          <mxGeometry x="390" y="460" width="60" height="30" as="geometry" />
        </mxCell>
        <mxCell id="8zR02o3t1v-lVRDo11p1-18" value="&lt;font size=&quot;3&quot;&gt;- is_valid_p_p False&lt;/font&gt;&lt;div&gt;&lt;font size=&quot;3&quot;&gt;- Hint &#39; max price is 100000&amp;nbsp;&lt;/font&gt;&lt;/div&gt;" style="rounded=0;whiteSpace=wrap;html=1;" parent="1" vertex="1">
          <mxGeometry x="10" y="610" width="250" height="60" as="geometry" />
        </mxCell>
        <mxCell id="8zR02o3t1v-lVRDo11p1-26" style="edgeStyle=orthogonalEdgeStyle;rounded=0;orthogonalLoop=1;jettySize=auto;html=1;exitX=0;exitY=0.5;exitDx=0;exitDy=0;entryX=0.5;entryY=0;entryDx=0;entryDy=0;" parent="1" source="8zR02o3t1v-lVRDo11p1-21" target="8zR02o3t1v-lVRDo11p1-25" edge="1">
          <mxGeometry relative="1" as="geometry" />
        </mxCell>
        <mxCell id="8zR02o3t1v-lVRDo11p1-28" style="edgeStyle=orthogonalEdgeStyle;rounded=0;orthogonalLoop=1;jettySize=auto;html=1;exitX=1;exitY=0.5;exitDx=0;exitDy=0;entryX=0.5;entryY=0;entryDx=0;entryDy=0;" parent="1" source="8zR02o3t1v-lVRDo11p1-21" target="8zR02o3t1v-lVRDo11p1-27" edge="1">
          <mxGeometry relative="1" as="geometry" />
        </mxCell>
        <mxCell id="8zR02o3t1v-lVRDo11p1-21" value="&lt;font size=&quot;3&quot;&gt;p_p &amp;gt; 0 &amp;amp; p_p &amp;lt; 100001&lt;/font&gt;" style="rhombus;whiteSpace=wrap;html=1;" parent="1" vertex="1">
          <mxGeometry x="380" y="640" width="230" height="80" as="geometry" />
        </mxCell>
        <mxCell id="8zR02o3t1v-lVRDo11p1-23" value="&lt;font style=&quot;font-size: 18px;&quot;&gt;Yes&lt;/font&gt;" style="text;html=1;align=center;verticalAlign=middle;whiteSpace=wrap;rounded=0;" parent="1" vertex="1">
          <mxGeometry x="384" y="620" width="60" height="30" as="geometry" />
        </mxCell>
        <mxCell id="8zR02o3t1v-lVRDo11p1-24" value="&lt;font style=&quot;font-size: 18px;&quot;&gt;No&lt;/font&gt;" style="text;html=1;align=center;verticalAlign=middle;whiteSpace=wrap;rounded=0;" parent="1" vertex="1">
          <mxGeometry x="560" y="620" width="60" height="30" as="geometry" />
        </mxCell>
        <mxCell id="8zR02o3t1v-lVRDo11p1-25" value="&lt;font size=&quot;3&quot;&gt;- is_valid_p_p True&lt;/font&gt;&lt;div&gt;&lt;font size=&quot;3&quot;&gt;- a field is ready&lt;/font&gt;&lt;/div&gt;" style="rounded=0;whiteSpace=wrap;html=1;" parent="1" vertex="1">
          <mxGeometry x="260" y="750" width="160" height="60" as="geometry" />
        </mxCell>
        <mxCell id="8zR02o3t1v-lVRDo11p1-27" value="&lt;font size=&quot;3&quot;&gt;- is_valid_p_p False&lt;/font&gt;&lt;div&gt;&lt;font size=&quot;3&quot;&gt;- hint &#39;unexpected err&#39;&lt;/font&gt;&lt;/div&gt;" style="rounded=0;whiteSpace=wrap;html=1;" parent="1" vertex="1">
          <mxGeometry x="570" y="770" width="160" height="60" as="geometry" />
        </mxCell>
        <mxCell id="8zR02o3t1v-lVRDo11p1-29" value="" style="swimlane;startSize=0;fillColor=#d5e8d4;strokeColor=#82b366;strokeWidth=5;" parent="1" vertex="1">
          <mxGeometry x="470" y="10" width="340" height="430" as="geometry" />
        </mxCell>
      </root>
    </mxGraphModel>
  </diagram>
</mxfile>
